<svg width="69" height="69" viewBox="0 0 69 69" fill="none" xmlns="http://www.w3.org/2000/svg">
<rect width="69" height="69" rx="15" fill="#FFF0EB"/>
<path fill-rule="evenodd" clip-rule="evenodd" d="M28.1812 35.0083C28.0651 34.9063 27.7969 34.6695 27.7015 34.5799C25.3755 32.3941 23.8517 28.9712 23.8517 25.1138C23.8517 18.3781 28.4869 13.041 34.0011 13.041C39.5152 13.041 44.1503 18.3781 44.1503 25.1138C44.1503 28.9679 42.6292 32.3884 40.3094 34.5778C40.2118 34.6699 39.9385 34.9116 39.8238 35.0125L39.8139 35.1799C39.8789 36.1847 40.5541 37.0553 41.5233 37.3626C48.7277 39.641 53.9507 45.0853 54.8277 51.538C54.9484 52.3988 54.6902 53.2696 54.1198 53.9254C53.5495 54.5813 52.723 54.9579 51.8541 54.9579C45.4956 54.9591 22.5067 54.9591 16.1482 54.9591C15.2787 54.9591 14.4518 54.5824 13.8813 53.9263C13.3107 53.2701 13.0524 52.3989 13.1723 51.5437C14.0515 45.0851 19.2745 39.641 26.4778 37.3628C27.4504 37.0544 28.1263 36.1802 28.1885 35.1722L28.1812 35.0083Z" fill="#FF9B52"/>
</svg>
