<svg width="50" height="50" viewBox="0 0 50 50" fill="none" xmlns="http://www.w3.org/2000/svg">
<path d="M0 7.27273C0 3.25611 3.25611 0 7.27273 0H42.7273C46.7439 0 50 3.25611 50 7.27273V42.7273C50 46.7439 46.7439 50 42.7273 50H7.27273C3.25611 50 0 46.7439 0 42.7273V7.27273Z" fill="#D3D3D3"/>
<path d="M0 7.27273C0 3.25611 3.25611 0 7.27273 0H42.7273C46.7439 0 50 3.25611 50 7.27273V42.7273C50 46.7439 46.7439 50 42.7273 50H7.27273C3.25611 50 0 46.7439 0 42.7273V7.27273Z" fill="#4B58CF"/>
<path d="M12.889 12.8887C14.4642 11.3134 16.3344 10.0639 18.3926 9.21132C20.4508 8.35878 22.6567 7.91999 24.8845 7.91999C27.1123 7.91999 29.3183 8.35878 31.3765 9.21132C33.4347 10.0639 35.3048 11.3134 36.8801 12.8887C38.4554 14.464 39.7049 16.3341 40.5575 18.3923C41.41 20.4505 41.8488 22.6565 41.8488 24.8843C41.8488 27.1121 41.41 29.318 40.5575 31.3762C39.7049 33.4344 38.4554 35.3046 36.8801 36.8798L30.8823 30.8821C31.6699 30.0944 32.2947 29.1594 32.721 28.1303C33.1473 27.1011 33.3667 25.9982 33.3667 24.8843C33.3667 23.7704 33.1473 22.6674 32.721 21.6383C32.2947 20.6092 31.6699 19.6741 30.8823 18.8865C30.0947 18.0989 29.1596 17.4741 28.1305 17.0478C27.1014 16.6215 25.9984 16.4021 24.8845 16.4021C23.7706 16.4021 22.6676 16.6215 21.6385 17.0478C20.6094 17.4741 19.6744 18.0989 18.8867 18.8865L12.889 12.8887Z" fill="#8FD7FF"/>
<path d="M12.889 36.8798C9.70754 33.6984 7.92024 29.3835 7.92024 24.8843C7.92023 20.385 9.70754 16.0701 12.889 12.8887C16.0704 9.70727 20.3853 7.91997 24.8845 7.91996C29.3837 7.91996 33.6987 9.70726 36.8801 12.8887L30.8823 18.8865C29.2916 17.2958 27.1341 16.4021 24.8845 16.4021C22.6349 16.4021 20.4774 17.2958 18.8867 18.8865C17.296 20.4772 16.4024 22.6346 16.4024 24.8843C16.4024 27.1339 17.296 29.2913 18.8867 30.882L12.889 36.8798Z" fill="white"/>
</svg>
