<svg width="50" height="50" viewBox="0 0 50 50" fill="none" xmlns="http://www.w3.org/2000/svg">
<path d="M0 7.27273C0 3.25611 3.25611 0 7.27273 0H42.7273C46.7439 0 50 3.25611 50 7.27273V42.7273C50 46.7439 46.7439 50 42.7273 50H7.27273C3.25611 50 0 46.7439 0 42.7273V7.27273Z" fill="#D3D3D3"/>
<path d="M0 7.27273C0 3.25611 3.25611 0 7.27273 0H42.7273C46.7439 0 50 3.25611 50 7.27273V42.7273C50 46.7439 46.7439 50 42.7273 50H7.27273C3.25611 50 0 46.7439 0 42.7273V7.27273Z" fill="#BB1D85"/>
<path d="M12.8883 36.8797C11.313 35.3045 10.0635 33.4343 9.21092 31.3761C8.35839 29.3179 7.91959 27.112 7.91959 24.8842C7.91959 22.6564 8.35839 20.4504 9.21092 18.3922C10.0635 16.334 11.313 14.4639 12.8883 12.8886C14.4636 11.3133 16.3337 10.0638 18.3919 9.21123C20.4501 8.3587 22.6561 7.9199 24.8839 7.9199C27.1117 7.9199 29.3176 8.3587 31.3758 9.21123C33.434 10.0638 35.3042 11.3133 36.8794 12.8886L30.8817 18.8864C30.094 18.0988 29.159 17.474 28.1299 17.0477C27.1008 16.6214 25.9978 16.402 24.8839 16.402C23.77 16.402 22.667 16.6214 21.6379 17.0477C20.6088 17.474 19.6737 18.0988 18.8861 18.8864C18.0985 19.674 17.4737 20.6091 17.0474 21.6382C16.6211 22.6673 16.4017 23.7703 16.4017 24.8842C16.4017 25.9981 16.6211 27.1011 17.0474 28.1302C17.4737 29.1593 18.0985 30.0943 18.8861 30.882L12.8883 36.8797Z" fill="white"/>
<path d="M36.8795 36.8797C33.6981 40.0612 29.3832 41.8485 24.8839 41.8485C20.3847 41.8485 16.0698 40.0612 12.8884 36.8797C9.70697 33.6983 7.91966 29.3834 7.91966 24.8842C7.91966 20.385 9.70696 16.0701 12.8884 12.8886L18.8862 18.8864C17.2955 20.4771 16.4018 22.6346 16.4018 24.8842C16.4018 27.1338 17.2955 29.2913 18.8862 30.882C20.4769 32.4727 22.6343 33.3663 24.8839 33.3663C27.1335 33.3663 29.291 32.4727 30.8817 30.882L36.8795 36.8797Z" fill="white"/>
</svg>
