<svg width="50" height="50" viewBox="0 0 50 50" fill="none" xmlns="http://www.w3.org/2000/svg">
<path d="M0 7.27273C0 3.25611 3.25611 0 7.27273 0H42.7273C46.7439 0 50 3.25611 50 7.27273V42.7273C50 46.7439 46.7439 50 42.7273 50H7.27273C3.25611 50 0 46.7439 0 42.7273V7.27273Z" fill="#D3D3D3"/>
<path d="M0 7.27273C0 3.25611 3.25611 0 7.27273 0H42.7273C46.7439 0 50 3.25611 50 7.27273V42.7273C50 46.7439 46.7439 50 42.7273 50H7.27273C3.25611 50 0 46.7439 0 42.7273V7.27273Z" fill="#515151"/>
<path d="M12.889 12.8887C14.4642 11.3134 16.3344 10.0638 18.3926 9.21131C20.4508 8.35877 22.6567 7.91998 24.8845 7.91998C27.1123 7.91998 29.3183 8.35878 31.3765 9.21131C33.4347 10.0638 35.3048 11.3134 36.8801 12.8887C38.4554 14.464 39.7049 16.3341 40.5575 18.3923C41.41 20.4505 41.8488 22.6565 41.8488 24.8843C41.8488 27.1121 41.41 29.318 40.5575 31.3762C39.7049 33.4344 38.4554 35.3046 36.8801 36.8798L30.8823 30.882C31.6699 30.0944 32.2947 29.1593 32.721 28.1302C33.1473 27.1011 33.3667 25.9982 33.3667 24.8843C33.3667 23.7704 33.1473 22.6674 32.721 21.6383C32.2947 20.6092 31.6699 19.6741 30.8823 18.8865C30.0947 18.0988 29.1596 17.4741 28.1305 17.0478C27.1014 16.6215 25.9984 16.4021 24.8845 16.4021C23.7706 16.4021 22.6676 16.6215 21.6385 17.0478C20.6094 17.4741 19.6744 18.0988 18.8867 18.8865L12.889 12.8887Z" fill="white"/>
<path d="M36.8801 12.8887C40.0615 16.0701 41.8488 20.385 41.8488 24.8842C41.8488 29.3835 40.0615 33.6984 36.8801 36.8798C33.6987 40.0612 29.3837 41.8485 24.8845 41.8485C20.3853 41.8485 16.0704 40.0612 12.889 36.8798L18.8867 30.882C20.4775 32.4727 22.6349 33.3664 24.8845 33.3664C27.1341 33.3664 29.2916 32.4727 30.8823 30.882C32.473 29.2913 33.3667 27.1339 33.3667 24.8842C33.3667 22.6346 32.473 20.4772 30.8823 18.8865L36.8801 12.8887Z" fill="white"/>
</svg>
