
<svg version="1.1" xmlns="http://www.w3.org/2000/svg" width="1024" height="1024">
<path d="M0 0 C0.60972656 0.42539063 1.21945312 0.85078125 1.84765625 1.2890625 C12.11345474 8.91241172 18.04038928 22.44140903 20.53234905 34.59669268 C21.11176586 38.81337066 21.14377601 42.92085058 21.1386652 47.1716671 C21.14150742 48.09031195 21.14434964 49.00895681 21.14727798 49.95543939 C21.15562275 53.04430709 21.15689303 56.13313727 21.15821838 59.22201538 C21.16278388 61.45458681 21.16778388 63.68715739 21.17318195 65.91972697 C21.18677386 72.06301885 21.19418448 78.20630519 21.20060861 84.34960818 C21.20778673 90.29149138 21.21960943 96.2333648 21.23132664 102.17524037 C21.25513513 114.3302148 21.27434018 126.48519243 21.29092598 138.64017868 C21.30736417 150.67597265 21.32584574 162.71176062 21.34705925 174.74754715 C21.34837686 175.49576197 21.34969446 176.2439768 21.351052 177.0148648 C21.35775404 180.81463535 21.36449262 184.61440584 21.37124526 188.4141763 C21.41901442 215.3312875 21.4621977 242.24840429 21.50268555 269.16552734 C21.5420306 295.31592211 21.58345196 321.46631224 21.62768555 347.61669922 C21.62904808 348.42270025 21.63041061 349.22870129 21.63181442 350.0591266 C21.64549974 358.1532849 21.65922729 366.24744314 21.67298577 374.34160132 C21.70101267 390.83048649 21.72875774 407.31937213 21.7563324 423.80825806 C21.7576006 424.56639834 21.7588688 425.32453861 21.76017542 426.10565284 C21.84483818 476.73709438 21.92291034 527.36854643 22 578 C22.73025391 577.20335937 23.46050781 576.40671875 24.21289062 575.5859375 C46.75 551 46.75 551 48.12548828 549.49951172 C49.04058633 548.50119339 49.95562555 547.50282114 50.87060547 546.50439453 C53.18578852 543.9782158 55.5020401 541.45303168 57.8203125 538.9296875 C58.75525 537.91149659 59.69014607 536.89326764 60.625 535.875 C61.08318115 535.37629395 61.5413623 534.87758789 62.01342773 534.36376953 C64.89169365 531.22562085 67.73323723 528.05729908 70.5625 524.875 C83.71039717 510.32341274 96.24627871 500.06789301 116.59765625 498.84375 C131.80544624 498.36287127 145.83638327 502.328294 157.375 512.4375 C158.93462376 513.93991268 160.47830623 515.45918261 162 517 C162.56332031 517.54140625 163.12664062 518.0828125 163.70703125 518.640625 C174.90049043 530.33616546 177.64713727 545.68880412 177.30859375 561.203125 C176.36038796 581.08003652 164.98490836 593.63910463 151.83105469 607.10839844 C149.57711947 609.43686378 147.4033581 611.82845811 145.25 614.25 C141.91222639 617.99389056 138.53093731 621.69326957 135.125 625.375 C131.22038404 629.59618973 127.3214607 633.82228923 123.4375 638.0625 C122.76291748 638.79895752 122.76291748 638.79895752 122.07470703 639.55029297 C121.16937398 640.53884515 120.26410037 641.52745177 119.35888672 642.51611328 C117.07357504 645.01164407 114.7867042 647.50574527 112.5 650 C111.58332596 650.99999325 110.6666593 651.99999324 109.75 653 C27.25 743 27.25 743 25.87353516 744.50146484 C24.96157421 745.49641974 24.04978888 746.49153563 23.13818359 747.48681641 C20.77597124 750.06538881 18.41030572 752.64066534 16.0390625 755.2109375 C15.55115234 755.74074219 15.06324219 756.27054688 14.56054688 756.81640625 C13.21056207 758.28210404 11.85923255 759.74656294 10.5078125 761.2109375 C8.76002757 763.15473569 7.1122019 765.09142921 5.48046875 767.125 C-3.93373366 778.03657949 -18.34132914 783.57971584 -32.375 784.8125 C-47.75679208 785.53907711 -60.65791341 781.12241183 -73 772 C-73.86625 771.38125 -74.7325 770.7625 -75.625 770.125 C-77.68285485 768.28376145 -79.39375043 766.44757419 -81.1875 764.359375 C-84.81576816 760.18191255 -88.57287744 756.14390809 -92.375 752.125 C-97.23619178 746.96403572 -102.04746458 741.76953779 -106.76953125 736.48046875 C-109.44558912 733.50446744 -112.15736736 730.5630045 -114.875 727.625 C-120.14654064 721.92599201 -125.39864397 716.20963732 -130.64111328 710.48388672 C-132.92642496 707.98835593 -135.2132958 705.49425473 -137.5 703 C-138.41667404 702.00000675 -139.3333407 701.00000676 -140.25 700 C-140.930625 699.2575 -140.930625 699.2575 -141.625 698.5 C-165 673 -188.375 647.5 -211.75 622 C-212.43074585 621.2575 -212.43074585 621.2575 -213.12524414 620.5 C-214.04145089 619.50032422 -214.9573041 618.50032431 -215.87280273 617.5 C-218.16871039 614.9922566 -220.4705643 612.49051715 -222.78515625 610 C-225.54828795 607.02215731 -228.28289959 604.01987426 -231 601 C-231.67192383 600.2575 -231.67192383 600.2575 -232.35742188 599.5 C-245.16959735 585.21879424 -250.92151162 570.80751536 -250.34765625 551.734375 C-249.47156994 536.12182617 -242.09624775 523.68261129 -231 513 C-219.72555247 503.48429223 -205.56371588 498.31789399 -190.77734375 498.76171875 C-165.95725779 500.89114947 -152.39225719 513.99338006 -136.71484375 532.04882812 C-133.96226545 535.18074809 -131.10729104 538.2138488 -128.25 541.25 C-123.02233475 546.82816988 -117.82802299 552.43382099 -112.671875 558.078125 C-110.79117452 560.13479746 -108.90641649 562.18703674 -107.015625 564.234375 C-106.52151123 564.7703833 -106.02739746 565.3063916 -105.51831055 565.85864258 C-104.14982744 567.34279153 -102.78003621 568.825734 -101.41015625 570.30859375 C-99.17365558 572.80607991 -97.08252731 575.3742286 -95 578 C-94.99853479 576.29346912 -94.99853479 576.29346912 -94.99703997 574.55246288 C-94.95378619 524.40318549 -94.90682774 474.25391334 -94.84101868 424.10466003 C-94.84002311 423.3451965 -94.83902754 422.58573297 -94.83800181 421.8032554 C-94.81634231 405.29731045 -94.79401955 388.79136645 -94.77101372 372.28542333 C-94.75973539 364.19068929 -94.7486036 356.09595505 -94.73754883 348.0012207 C-94.73644626 347.19570552 -94.7353437 346.39019033 -94.73420772 345.56026559 C-94.69855133 319.46016041 -94.67256768 293.36005651 -94.65161031 267.25993573 C-94.63001931 240.43440567 -94.59864948 213.60890434 -94.55500887 186.78340066 C-94.5488468 182.99282988 -94.54279629 179.20225892 -94.53681374 175.41168785 C-94.53563285 174.66566309 -94.53445197 173.91963833 -94.53323531 173.15100676 C-94.5145277 161.15128777 -94.5061015 149.15158263 -94.50153876 137.15185084 C-94.49672945 125.0824838 -94.48104412 113.01316943 -94.45433434 100.94383065 C-94.44016698 94.40666834 -94.43114775 87.86957401 -94.43499184 81.33239365 C-94.43840627 75.34428674 -94.42801264 69.35636637 -94.40676448 63.36829766 C-94.40150357 61.20523378 -94.40125432 59.04215049 -94.40660437 56.87908683 C-94.45216254 36.36556215 -92.04402338 18.43443921 -77 3 C-54.85617251 -16.14868972 -23.19883295 -18.81446635 0 0 Z " fill="#8743DF" transform="translate(264,126)"/>
<path d="M0 0 C1.70774729 -0.00302369 3.41549322 -0.00691427 5.12323678 -0.01159257 C9.79775097 -0.02185314 14.47218829 -0.0196957 19.14670873 -0.01541197 C24.19521612 -0.01294124 29.24370517 -0.02196322 34.29220581 -0.02944946 C44.17559606 -0.04218866 54.05895913 -0.04399114 63.94235621 -0.0416492 C71.97691533 -0.03986507 80.0114662 -0.04161773 88.04602432 -0.04587364 C89.1902043 -0.04646883 90.33438428 -0.04706402 91.51323638 -0.04767724 C93.83775027 -0.04888901 96.16226415 -0.05010315 98.48677804 -0.05131962 C120.27833962 -0.06219209 142.06988573 -0.06003401 163.86144818 -0.05393478 C183.78902623 -0.04876548 203.7165554 -0.06002193 223.64412378 -0.07903299 C244.11580758 -0.09841314 264.58746827 -0.10666711 285.05916131 -0.10290974 C296.5484383 -0.10099802 308.0376737 -0.10348251 319.52694321 -0.11762428 C329.30750835 -0.12954125 339.08800627 -0.13093936 348.86857234 -0.11883412 C353.85637847 -0.11294779 358.84406166 -0.11183929 363.83185959 -0.12383652 C368.40271178 -0.13470291 372.97333849 -0.13158293 377.54418017 -0.11757483 C379.19280515 -0.11493001 380.84144785 -0.11728766 382.49005543 -0.1253107 C400.77113113 -0.2080624 417.42323223 3.62723066 430.91506958 16.76460266 C443.25342638 30.47627222 447.26629226 45.0396533 446.57522583 63.07319641 C445.61998048 77.8661579 438.74851777 90.80740934 428.03225708 100.93647766 C415.56158935 111.03178011 401.84203133 115.380137 385.86964798 115.38933086 C384.83297501 115.39196042 384.83297501 115.39196042 383.77535915 115.3946431 C381.47240118 115.3992744 379.16950714 115.39684505 376.86654663 115.39440918 C375.19352503 115.3962786 373.52050387 115.39857982 371.8474834 115.4012745 C367.25968159 115.40738271 362.67189804 115.40726006 358.08409309 115.40608013 C353.13235316 115.40587587 348.18061905 115.41139723 343.22888184 115.4161377 C333.53104673 115.42443943 323.83321771 115.42719232 314.13537934 115.42775007 C306.25142298 115.42822546 298.36746861 115.43028133 290.48351288 115.4334507 C268.12452847 115.44225596 245.76554887 115.44687027 223.40656272 115.44612022 C222.20151842 115.44608027 220.99647412 115.44604031 219.75491333 115.44599915 C217.94513654 115.44593782 217.94513654 115.44593782 216.0987986 115.44587526 C196.54616318 115.44546883 176.99354702 115.45503814 157.44091716 115.46913751 C137.3580242 115.48350484 117.27514062 115.4904075 97.19224238 115.48954374 C85.91980218 115.48921189 74.64738217 115.49195353 63.37494659 115.50272179 C53.77733511 115.51183147 44.17975298 115.51399818 34.58213905 115.50721236 C29.68753224 115.50394954 24.79298172 115.50388192 19.89838028 115.51256561 C15.41261199 115.52044197 10.92694452 115.51898757 6.44117865 115.51028148 C4.82344871 115.508749 3.20571121 115.51055311 1.58799019 115.51614156 C-18.94749796 115.58235043 -35.40224589 111.86711564 -50.96383667 97.69819641 C-62.74251788 85.37000269 -66.32647498 70.97221254 -66.26559448 54.39888 C-66.08375578 47.10166815 -64.96851827 40.91126981 -61.83883667 34.26069641 C-61.40571167 33.20108704 -61.40571167 33.20108704 -60.96383667 32.12007141 C-54.96899021 18.52461604 -43.46281837 9.55629621 -30.30758667 3.48725891 C-20.33464539 -0.03920907 -10.44288656 -0.0262541 0 0 Z " fill="#8743DF" transform="translate(577.8388366699219,795.7393035888672)"/>
<path d="M0 0 C1.17951853 -0.00226556 2.35903705 -0.00453111 3.57429856 -0.00686532 C6.82167265 -0.01207158 10.06901159 -0.0128552 13.31638849 -0.01167095 C16.82910894 -0.01146577 20.34182133 -0.01699672 23.85453796 -0.02172852 C30.72631426 -0.03001009 37.59808198 -0.03278221 44.46986286 -0.03334089 C50.05875896 -0.03381718 55.64765225 -0.03587755 61.23654747 -0.03904152 C77.10415951 -0.04784082 92.9717648 -0.05246196 108.83937929 -0.05171105 C110.12063772 -0.05165111 110.12063772 -0.05165111 111.42778015 -0.05158997 C112.71061408 -0.05152864 112.71061408 -0.05152864 114.01936384 -0.05146609 C127.87742341 -0.05105968 141.7354558 -0.06062961 155.59350751 -0.07472833 C169.84447518 -0.0891117 184.09542962 -0.09599746 198.34640473 -0.09513456 C206.33858685 -0.09480329 214.33074047 -0.09751939 222.32291603 -0.10831261 C229.12730986 -0.11744338 235.93166226 -0.11957172 242.73605958 -0.11280318 C246.20299979 -0.10955112 249.66986061 -0.10943345 253.13679314 -0.11815643 C256.90653245 -0.12590671 260.67606571 -0.12121135 264.44580078 -0.11352539 C266.06549466 -0.12124074 266.06549466 -0.12124074 267.71790963 -0.12911195 C286.53825863 -0.04478865 301.95292109 4.76639314 315.97587585 17.50871277 C326.43167193 28.35537973 331.65649244 43.21154299 332.28837585 58.13371277 C331.62842145 74.2893967 325.46660259 89.06199091 314.0110321 100.43449402 C304.31929354 109.31623305 290.81451727 115.24700134 277.6308279 115.26514053 C276.05424252 115.27090225 276.05424252 115.27090225 274.44580692 115.27678037 C273.29738113 115.27591388 272.14895533 115.2750474 270.96572876 115.27415466 C269.12829687 115.27861135 269.12829687 115.27861135 267.25374514 115.28315806 C263.85632001 115.29033148 260.45894546 115.29301685 257.0615164 115.29375553 C253.39603144 115.29560859 249.73055738 115.30315729 246.06507874 115.30989075 C238.0503634 115.32346547 230.03565307 115.3294977 222.02092814 115.33390141 C217.01377364 115.33666578 212.00662106 115.34090354 206.99946785 115.34540558 C193.1289415 115.35759806 179.25841669 115.36789681 165.38788509 115.37128067 C164.05655014 115.37161002 164.05655014 115.37161002 162.69831953 115.37194602 C161.36383953 115.37227344 161.36383953 115.37227344 160.00240034 115.37260747 C158.19969491 115.37305093 156.39698948 115.3734975 154.59428406 115.37394714 C153.70008424 115.37416857 152.80588443 115.37439 151.88458765 115.37461814 C137.4047365 115.37856371 122.92493575 115.39601044 108.44510406 115.41930667 C93.56940257 115.44304601 78.69372635 115.45548373 63.81800562 115.45664859 C55.46973683 115.457564 47.12153367 115.4632823 38.773283 115.4814682 C31.6624043 115.49690421 24.55161152 115.50196913 17.44071924 115.4937301 C13.81593114 115.48983569 10.19131589 115.49069354 6.5665493 115.50478745 C2.62759542 115.51996213 -1.31111808 115.51162388 -5.25009155 115.50120544 C-6.94930766 115.51329005 -6.94930766 115.51329005 -8.68285137 115.52561879 C-24.99160762 115.42511281 -40.11997667 109.96327745 -51.90693665 98.50480652 C-65.09893254 84.15437371 -67.89642934 68.56795243 -67.26142883 49.79142761 C-66.36481215 36.15934765 -58.70476921 23.67089783 -48.9577179 14.45793152 C-34.1160601 2.44325616 -18.61424316 -0.0265314 0 0 Z " fill="#8743DF" transform="translate(579.0866241455078,567.8662872314453)"/>
<path d="M0 0 C1.82434802 -0.00435315 3.64869421 -0.00953831 5.47303772 -0.01548767 C10.40493295 -0.0288239 15.33675129 -0.02946236 20.26866102 -0.02692437 C24.39616812 -0.02585102 28.5236599 -0.03074732 32.6511637 -0.03552979 C42.39391908 -0.04660636 52.1366359 -0.04707279 61.87939453 -0.04101562 C71.90754847 -0.0349766 81.93556207 -0.04728933 91.96369207 -0.06858569 C100.59501675 -0.08623712 109.2262969 -0.09219748 117.85763896 -0.08894795 C123.00326967 -0.08714062 128.14880026 -0.08971616 133.29441452 -0.10366249 C138.13559394 -0.11629399 142.97655554 -0.11424665 147.81773186 -0.1012516 C149.58651365 -0.09889784 151.35531104 -0.10157707 153.12407494 -0.10987473 C172.38139415 -0.19364682 188.19701125 3.58488957 202.26025391 17.48168945 C213.55319781 29.4793936 218.49911772 44.18430771 218.19775391 60.4934082 C216.96478918 75.60112788 211.25557609 89.87291964 199.88916016 100.2746582 C186.94963623 110.94345787 173.05532094 115.38653397 156.25030518 115.40837097 C155.52506425 115.41063653 154.79982332 115.41290208 154.05260539 115.41523629 C151.64556795 115.42151809 149.23858765 115.42075071 146.83154297 115.41992188 C145.09616016 115.42291702 143.36077801 115.42632037 141.62539673 115.43009949 C136.92686389 115.43890793 132.22834929 115.44127628 127.529809 115.44191527 C124.58953984 115.44262762 121.64927528 115.44476544 118.70900726 115.44741249 C108.43767504 115.45665579 98.16635577 115.46074869 87.89501953 115.45996094 C78.34295367 115.45936056 68.79094435 115.46990712 59.23889279 115.4857046 C51.01950099 115.49881035 42.8001276 115.50414355 34.58072543 115.50350553 C29.67988771 115.50325141 24.77910026 115.50605456 19.87827301 115.51668358 C15.26533801 115.52641565 10.65250082 115.52640895 6.03956223 115.51916695 C4.35463441 115.5181274 2.66970034 115.5204462 0.98478317 115.5265274 C-19.82002057 115.59670253 -36.44374907 112.09094903 -52.23583984 97.7121582 C-64.01452105 85.38396449 -67.59847816 70.98617434 -67.53759766 54.4128418 C-67.35575896 47.11562994 -66.24052144 40.9252316 -63.11083984 34.2746582 C-62.67771484 33.21504883 -62.67771484 33.21504883 -62.23583984 32.1340332 C-56.24099338 18.53857783 -44.73482154 9.57025801 -31.57958984 3.5012207 C-21.21362927 -0.16422031 -10.85477621 -0.01715883 0 0 Z " fill="#8743DF" transform="translate(579.11083984375,340.725341796875)"/>
<path d="M0 0 C1.30660583 -0.0033284 2.61321167 -0.0066568 3.95941162 -0.01008606 C6.71269558 -0.01603479 9.46594836 -0.01793041 12.21923828 -0.01733398 C15.7062167 -0.01723266 19.19299015 -0.03087313 22.6799202 -0.04810619 C26.05744883 -0.06205724 29.43494308 -0.06131896 32.8125 -0.0625 C34.043172 -0.06968552 35.27384399 -0.07687103 36.54180908 -0.08427429 C56.20897536 -0.0333382 71.49081355 3.82533776 86.35546875 17.12109375 C97.74338164 28.75319191 102.55268222 43.81605464 102.47314453 59.72705078 C102.07214171 75.87717324 95.59367529 88.90760733 84.171875 100.16796875 C83.32496094 101.03035156 83.32496094 101.03035156 82.4609375 101.91015625 C69.74471946 113.88201031 53.05116443 115.64189097 36.453125 115.56640625 C34.86234403 115.56843349 33.27156397 115.57135029 31.68078613 115.57510376 C28.36603849 115.57949663 25.05153535 115.57319514 21.73681641 115.55908203 C17.5209328 115.54199185 13.30562248 115.55184951 9.08975983 115.56979942 C5.81060589 115.58072013 2.53158441 115.57715329 -0.74757385 115.56941605 C-2.30066498 115.56743684 -3.85376876 115.56979161 -5.40684509 115.57685471 C-23.7161884 115.64188033 -40.16254108 111.64912246 -53.6484375 98.5390625 C-66.8404334 84.18862969 -69.63793019 68.60220841 -69.00292969 49.82568359 C-68.106313 36.19360364 -60.44627006 23.70515381 -50.69921875 14.4921875 C-35.27374694 2.0049008 -19.28691852 0.01732602 0 0 Z " fill="#8743DF" transform="translate(580.828125,112.83203125)"/>
</svg>
