<svg width="42" height="42" viewBox="0 0 42 42" fill="none" xmlns="http://www.w3.org/2000/svg">
<path d="M21 6.99982C12.021 6.99982 4.20051 12.6394 0 21C4.20051 29.3622 12.021 35.0002 21 35.0002C29.979 35.0002 37.7995 29.3622 42 21C37.7995 12.6394 29.979 6.99982 21 6.99982ZM21 29.7502C16.1668 29.7502 12.2498 25.8332 12.2498 21C12.2498 16.1668 16.1668 12.2498 21 12.2498C25.8332 12.2498 29.7502 16.1668 29.7502 21C29.7502 25.8332 25.8332 29.7502 21 29.7502Z" fill="#8743DF"/>
<path d="M21 26.25C23.8995 26.25 26.25 23.8995 26.25 21C26.25 18.1005 23.8995 15.75 21 15.75C18.1005 15.75 15.75 18.1005 15.75 21C15.75 23.8995 18.1005 26.25 21 26.25Z" fill="#8743DF"/>
</svg>
