<svg width="41" height="41" viewBox="0 0 41 41" fill="none" xmlns="http://www.w3.org/2000/svg">
<g clip-path="url(#clip0)">
<path d="M33.0456 38.8331C33.3971 38.8331 33.744 38.9669 34.0078 39.2217C35.6946 40.8505 38.1551 41.3929 40.3424 40.714C38.9347 37.7814 38.7397 34.4217 39.8305 31.3109C41.1844 27.4404 41.5236 23.5611 39.9829 19.6703C38.6293 16.2524 36.0171 13.4128 32.7113 11.7935C32.9146 12.8777 33.0171 13.9825 33.0171 15.0989C33.0172 19.8378 31.195 24.2948 27.8864 27.6491C24.5773 31.0038 20.1416 32.8901 15.3965 32.9606C14.5149 32.9744 13.6372 32.9225 12.7695 32.8082C15.3774 37.3794 20.2958 40.3565 25.7005 40.4367C28.0648 40.4732 30.3349 39.9779 32.449 38.9683C32.6394 38.8773 32.8433 38.8331 33.0456 38.8331Z" fill="#8743DF"/>
<path d="M15.4351 0.00331767C7.01736 -0.163828 0.0198544 6.64603 -0.000442637 15.062C-0.00541541 17.1182 0.395958 19.1118 1.19262 20.9876C1.20419 21.0149 1.21494 21.0425 1.22469 21.0705C2.31555 24.1813 2.1206 27.541 0.712795 30.4737C2.90031 31.1523 5.36051 30.6102 7.0474 28.9813C7.46298 28.5798 8.08478 28.4787 8.60621 28.728C10.72 29.7376 12.9905 30.2344 15.3547 30.1965C23.7066 30.0725 30.2488 23.4409 30.2487 15.0991C30.2488 6.93942 23.6034 0.167521 15.4351 0.00331767ZM7.05653 17.3541C5.84713 17.3541 4.86668 16.3753 4.86668 15.1679C4.86668 13.9606 5.84713 12.9817 7.05653 12.9817C8.26593 12.9817 9.24638 13.9606 9.24638 15.1679C9.24627 16.3753 8.26593 17.3541 7.05653 17.3541ZM15.1242 17.3541C13.9148 17.3541 12.9343 16.3753 12.9343 15.1679C12.9343 13.9606 13.9148 12.9817 15.1242 12.9817C16.3336 12.9817 17.314 13.9606 17.314 15.1679C17.314 16.3753 16.3336 17.3541 15.1242 17.3541ZM23.192 17.3541C21.9826 17.3541 21.0021 16.3753 21.0021 15.1679C21.0021 13.9606 21.9826 12.9817 23.192 12.9817C24.4014 12.9817 25.3818 13.9606 25.3818 15.1679C25.3818 16.3753 24.4014 17.3541 23.192 17.3541Z" fill="#8743DF"/>
</g>
<defs>
<clipPath id="clip0">
<rect width="41" height="41" fill="white"/>
</clipPath>
</defs>
</svg>
