<svg class="me-3" width="54" height="54" viewBox="0 0 54 54" fill="none" xmlns="http://www.w3.org/2000/svg">
  <rect width="54" height="54" rx="8" fill="#FBA556"></rect>
  <path d="M27 15C21.934 15 17.8125 19.1215 17.8125 24.1875C17.8125 25.8091 18.2409 27.4034 19.0515 28.7979C19.2404 29.123 19.4516 29.4398 19.6793 29.7396L26.6008 39H27.3991L34.3207 29.7397C34.5483 29.4398 34.7595 29.1231 34.9485 28.7979C35.7591 27.4034 36.1875 25.8091 36.1875 24.1875C36.1875 19.1215 32.066 15 27 15ZM27 27.2344C25.32 27.2344 23.9531 25.8675 23.9531 24.1875C23.9531 22.5075 25.32 21.1406 27 21.1406C28.68 21.1406 30.0469 22.5075 30.0469 24.1875C30.0469 25.8675 28.68 27.2344 27 27.2344Z" fill="white"></path>
</svg>
