<svg width="42" height="42" viewBox="0 0 42 42" fill="none" xmlns="http://www.w3.org/2000/svg">
<path d="M21.84 15.2366V5.88067C21.84 5.56149 21.6603 5.27085 21.3764 5.12804C21.0925 4.98522 20.7497 5.01713 20.496 5.20867L0.336 20.3287C0.124359 20.4866 0 20.7352 0 21.0007C0 21.2644 0.124359 21.513 0.336 21.6727L20.496 36.7927C20.7496 36.9842 21.0924 37.0128 21.3764 36.8717C21.6603 36.7289 21.84 36.4382 21.84 36.1207V26.9428C31.4647 27.3846 37.3766 30.4304 40.409 36.4952C40.5535 36.7859 40.8458 36.9606 41.16 36.9606C41.2238 36.9606 41.2876 36.9522 41.3532 36.937C41.7328 36.848 42 36.5103 42 36.1206C42 24.3623 34.1157 16.2379 21.84 15.2366Z" fill="#FF9330"/>
</svg>
