<svg width="42" height="42" viewBox="0 0 42 42" fill="none" xmlns="http://www.w3.org/2000/svg">
<g clip-path="url(#clip0)">
<path d="M38.4998 10.4995H35.0002V38.4998H38.4998C40.4245 38.4998 42 36.9238 42 34.9991V13.9991C42 12.075 40.4245 10.4995 38.4998 10.4995Z" fill="#2BC155"/>
<path d="M27.9998 10.4995V6.9998C27.9998 5.07515 26.4243 3.49963 24.5001 3.49963H17.4998C15.5756 3.49963 14.0001 5.07515 14.0001 6.9998V10.4995H10.5V38.4998H31.5V10.4995H27.9998ZM24.5001 10.4995H17.4998V6.99929H24.5001V10.4995Z" fill="#2BC155"/>
<path d="M3.50017 10.4995C1.57551 10.4995 0 12.075 0 13.9996V34.9996C0 36.9243 1.57551 38.5003 3.50017 38.5003H6.99983V10.4995H3.50017Z" fill="#2BC155"/>
</g>
<defs>
<clipPath id="clip0">
<rect width="42" height="42" fill="white"/>
</clipPath>
</defs>
</svg>
