<svg width="42" height="42" viewBox="0 0 42 42" fill="none" xmlns="http://www.w3.org/2000/svg">
<g clip-path="url(#clip0)">
<path d="M39.5172 32.7361L39.3003 32.2672C38.6496 30.7299 30.6354 28.3739 29.9713 28.3362L29.4399 28.377C28.3472 28.6021 27.1435 29.6376 24.6167 31.8772C21.7702 30.5598 17.8713 27.0487 16.0334 24.9748C14.0432 22.7326 11.5603 18.9618 10.6679 16.1447C13.55 13.5905 14.7507 12.4818 14.8271 11.2486C14.8679 10.5845 13.4932 2.35035 12.0452 1.51531L11.6114 1.24157C10.6896 0.647742 9.29636 -0.249819 7.74812 0.0651832C7.37423 0.143722 7.00806 0.290294 6.66628 0.501594C5.62783 1.15795 3.08493 2.92257 1.92456 5.22985C1.20882 6.6665 0.883478 19.7776 10.7113 30.8608C18.9979 40.2111 28.9285 41.9267 32.7793 42H33.2868C33.6898 41.9914 33.9999 41.9632 34.1903 41.9241L34.2419 41.9159L34.402 41.8668C36.8312 40.9967 38.889 38.6812 39.6616 37.7268C41.0896 35.9596 40.0702 33.8609 39.5172 32.7361Z" fill="#8743DF"/>
</g>
<defs>
<clipPath id="clip0">
<rect width="42" height="42" fill="white"/>
</clipPath>
</defs>
</svg>
