<svg width="80" height="80" viewBox="0 0 80 80" fill="none" xmlns="http://www.w3.org/2000/svg">
<path d="M0 11.6364C0 5.20978 5.20978 0 11.6364 0H68.3636C74.7902 0 80 5.20978 80 11.6364V68.3636C80 74.7902 74.7902 80 68.3636 80H11.6364C5.20978 80 0 74.7902 0 68.3636V11.6364Z" fill="#D3D3D3"/>
<path d="M0 11.6364C0 5.20978 5.20978 0 11.6364 0H68.3636C74.7902 0 80 5.20978 80 11.6364V68.3636C80 74.7902 74.7902 80 68.3636 80H11.6364C5.20978 80 0 74.7902 0 68.3636V11.6364Z" fill="#31B9F3"/>
<path d="M20.6216 20.6219C23.142 18.1015 26.1342 16.1021 29.4273 14.7381C32.7205 13.374 36.25 12.6719 39.8145 12.6719C43.3789 12.6719 46.9085 13.374 50.2016 14.7381C53.4947 16.1021 56.4869 18.1015 59.0074 20.6219C61.5278 23.1424 63.5271 26.1346 64.8912 29.4277C66.2552 32.7208 66.9573 36.2504 66.9573 39.8148C66.9573 43.3793 66.2552 46.9088 64.8912 50.2019C63.5271 53.495 61.5278 56.4873 59.0074 59.0077L49.4109 49.4113C50.6711 48.151 51.6708 46.6549 52.3528 45.0084C53.0348 43.3618 53.3859 41.597 53.3859 39.8148C53.3859 38.0326 53.0348 36.2678 52.3528 34.6212C51.6708 32.9747 50.6711 31.4786 49.4109 30.2184C48.1507 28.9581 46.6546 27.9585 45.008 27.2764C43.3615 26.5944 41.5967 26.2434 39.8145 26.2434C38.0322 26.2434 36.2675 26.5944 34.6209 27.2764C32.9743 27.9585 31.4782 28.9581 30.218 30.2184L20.6216 20.6219Z" fill="#31B9F3"/>
<path d="M64 34.5C64 41.263 61.3661 47.749 56.6777 52.5312C51.9893 57.3134 45.6304 60 39 60C32.3696 60 26.0107 57.3134 21.3223 52.5312C16.6339 47.7491 14 41.263 14 34.5L26.5 34.5C26.5 37.8815 27.817 41.1245 30.1612 43.5156C32.5054 45.9067 35.6848 47.25 39 47.25C42.3152 47.25 45.4946 45.9067 47.8388 43.5156C50.183 41.1245 51.5 37.8815 51.5 34.5L64 34.5Z" fill="#23FFD7"/>
</svg>
