<svg width="80" height="80" viewBox="0 0 80 80" fill="none" xmlns="http://www.w3.org/2000/svg">
<path d="M0 11.6364C0 5.20978 5.20978 0 11.6364 0H68.3636C74.7902 0 80 5.20978 80 11.6364V68.3636C80 74.7902 74.7902 80 68.3636 80H11.6364C5.20978 80 0 74.7902 0 68.3636V11.6364Z" fill="#D3D3D3"/>
<path d="M0 11.6364C0 5.20978 5.20978 0 11.6364 0H68.3636C74.7902 0 80 5.20978 80 11.6364V68.3636C80 74.7902 74.7902 80 68.3636 80H11.6364C5.20978 80 0 74.7902 0 68.3636V11.6364Z" fill="#EFF331"/>
<path d="M66.9572 39.8148C66.9572 43.3792 66.2551 46.9088 64.8911 50.2019C63.527 53.495 61.5277 56.4872 59.0073 59.0077C56.4868 61.5281 53.4946 63.5275 50.2015 64.8915C46.9084 66.2556 43.3788 66.9576 39.8144 66.9576C36.2499 66.9576 32.7204 66.2556 29.4272 64.8915C26.1341 63.5275 23.1419 61.5281 20.6215 59.0077C18.101 56.4872 16.1017 53.495 14.7376 50.2019C13.3736 46.9088 12.6715 43.3792 12.6715 39.8148L26.2429 39.8148C26.2429 41.597 26.594 43.3618 27.276 45.0083C27.958 46.6549 28.9577 48.151 30.2179 49.4112C31.4781 50.6714 32.9742 51.6711 34.6208 52.3531C36.2674 53.0352 38.0321 53.3862 39.8144 53.3862C41.5966 53.3862 43.3614 53.0352 45.0079 52.3531C46.6545 51.6711 48.1506 50.6715 49.4108 49.4112C50.671 48.151 51.6707 46.6549 52.3527 45.0083C53.0348 43.3618 53.3858 41.597 53.3858 39.8148L66.9572 39.8148Z" fill="#F0FF49"/>
<path d="M12.6717 39.8148C12.6717 32.616 15.5314 25.7121 20.6216 20.6219C25.7119 15.5316 32.6158 12.6719 39.8145 12.6719C47.0133 12.6719 53.9172 15.5316 59.0074 20.6219C64.0977 25.7121 66.9574 32.616 66.9574 39.8147L53.386 39.8148C53.386 36.2154 51.9561 32.7634 49.411 30.2183C46.8659 27.6732 43.4139 26.2433 39.8145 26.2433C36.2152 26.2433 32.7632 27.6732 30.2181 30.2183C27.673 32.7635 26.2431 36.2154 26.2431 39.8148L12.6717 39.8148Z" fill="#1E1E1E"/>
</svg>
